# xmcd CD database file
#
# Track frame offsets:
#	150
#	19316
#	36782
#	54022
#	69518
#	83598
#	102600
#	118784
#	132699
#	147566
#	163387
#	182901
#
# Disc length: 2630 seconds
#
# Revision: 0
# Processed by: cddbd v1.5.2PL0 Copyright (c) Steve Scherf et al.
# Submitted via: CDex 1.51
#
DISCID=b20a440c
DTITLE=Ann Sweeten - A Place In The Sun
DYEAR=2005
DGENRE=New Age
TTITLE0=shepherd me
TTITLE1=a place in the sun
TTITLE2=shades of september
TTITLE3=castles in the air
TTITLE4=echoes
TTITLE5=summer tomorrows
TTITLE6=a pillow in the sky
TTITLE7=the last day of april
TTITLE8=ashes
TTITLE9=winding roads
TTITLE10=twilight
TTITLE11=threshold
EXTD=YEAR: 2005
EXTT0=
EXTT1=
EXTT2=
EXTT3=
EXTT4=
EXTT5=
EXTT6=
EXTT7=
EXTT8=
EXTT9=
EXTT10=
EXTT11=
PLAYORDER=
